<svg xmlns="http://www.w3.org/2000/svg" width="22" height="22" viewBox="0 0 22 22"><path fill-rule="evenodd" d="M16.902 3.737c-.764 0-1.359.595-1.359 1.36s.595 1.358 1.359 1.358 1.359-.595 1.359-1.359-.595-1.359-1.359-1.359zM15.968 0H6.115A6.09 6.09 0 000 6.115v9.768a6.09 6.09 0 006.115 6.115h9.768a6.09 6.09 0 006.115-6.115V6.115C22.083 2.718 19.365 0 15.968 0zm3.992 15.968c0 2.208-1.784 4.077-4.077 4.077H6.115c-2.208 0-4.077-1.784-4.077-4.077V6.115c0-2.208 1.784-3.992 4.077-4.077h9.768c2.208 0 4.077 1.784 4.077 4.077v9.853zM11.04 5.35a5.69 5.69 0 100 11.381 5.69 5.69 0 000-11.381zm0 9.343c-2.038 0-3.652-1.614-3.652-3.652s1.614-3.653 3.652-3.653 3.653 1.614 3.653 3.653-1.614 3.652-3.653 3.652z"></path></svg>