<svg xmlns="http://www.w3.org/2000/svg" width="28" height="23" viewBox="0 0 28 23"><path fill-rule="evenodd" d="M24.295 6.472v.723C24.295 14.51 18.695 23 8.49 23c-2.98 0-5.961-.903-8.49-2.529a11.15 11.15 0 008.219-2.258c-2.348 0-4.426-1.625-5.239-3.883.813.18 1.716.09 2.53-.09a5.507 5.507 0 01-4.421-5.182l-.005-.328c.813.452 1.626.632 2.529.723C1.174 7.827.452 4.576 1.897 2.047c2.8 3.432 6.954 5.6 11.47 5.78-.723-2.98 1.174-5.96 4.154-6.683 1.897-.452 3.974.18 5.329 1.625a11.882 11.882 0 003.522-1.354c-.452 1.264-1.264 2.348-2.438 3.07 1.083-.18 2.167-.451 3.16-.903-.65.976-1.52 1.878-2.477 2.641l-.322.25z"></path></svg>